<?xml version="1.0" encoding="iso-8859-1"?>
<svg version="1.1" id="Layer_1" xmlns="http://www.w3.org/2000/svg"
	 viewBox="0 0 512 512" xml:space="preserve">

  <circle style="fill:#A6A8AA;" cx="256" cy="256" r="246"/>
	<path style="fill:#4A6B8E;" d="M509.266,293.448L348.043,132.225L209.744,383.857l2.163,2.163l-98.13,32.458l87.678,87.678
	C219.034,509.971,237.278,512,256,512C384.662,512,491.141,417.08,509.266,293.448z"/>
	<path style="fill:#5D5F61;" d="M142.222,397.648h227.556V199.111c0-62.838-50.94-113.778-113.778-113.778l0,0
	c-62.838,0-113.778,50.94-113.778,113.778V397.648z"/>
	<path style="fill:#D6D8DA;" d="M369.778,199.111c0-62.838-50.94-113.778-113.778-113.778l0,0c-0.193,0-0.381,0.014-0.574,0.014
	v312.299h114.352V199.111z"/>
	<rect x="113.778" y="390.034" style="fill:#B1B3B5;" width="284.444" height="28.444"/>
	<g>
    <rect x="255.431" y="390.034" style="fill:#B0B2B4;" width="142.791" height="28.444"/>
		<polygon style="fill:#B0B2B4;" points="298.667,227.554 298.665,199.109 270.222,199.109 270.222,170.667 241.778,170.667
		241.778,199.111 213.333,199.111 213.335,227.556 241.778,227.556 241.778,312.889 270.222,312.889 270.222,227.556 	"/>
  </g>
	<polygon style="fill:#272525;" points="298.665,199.109 270.222,199.109 270.222,170.667 255.426,170.667 255.426,312.889
	270.222,312.889 270.222,227.556 298.667,227.554 "/>
	<circle cx="256" cy="256" r="247" fill="none" stroke="white" stroke-width="18" />
</svg>
